<?xml version="1.0" encoding="utf-8"?>
<!-- Generator: Adobe Illustrator 19.2.1, SVG Export Plug-In . SVG Version: 6.00 Build 0)  -->
<svg version="1.1" id="layer" xmlns="http://www.w3.org/2000/svg" xmlns:xlink="http://www.w3.org/1999/xlink" x="0px" y="0px"
	 viewBox="0 0 652 652" style="enable-background:new 0 0 652 652;" xml:space="preserve">
<style type="text/css">
	.st0{
		fill:#FFF;
	}
</style>
<g>
	<path class="st0" d="M142.1,443.1c-66.8,0-121.2-54.1-121.2-121.2c0-66.8,54.4-121.2,121.2-121.2c66.8,0,121.2,54.4,121.2,121.2
		C263.3,389,208.9,443.1,142.1,443.1 M142.1,206.4c-63.8,0-115.5,51.7-115.5,115.5c0,63.8,51.7,115.5,115.5,115.5
		c63.8,0,115.5-51.7,115.5-115.5C257.6,258.4,205.9,206.4,142.1,206.4 M244.8,356.4c-0.1,0.1-0.2,0.3-0.6,0.1
		c-0.3-0.1-0.4-0.3-0.4-0.4c0-0.2,4.1-12.1,4-25.9c0-14.8-6-23.8-13.8-23.8c-4.7,0-8.1,3.4-8.1,8.4c0,9.1,11.1,9.7,11.1,29.6
		c0,8.1-1.7,15.8-4.4,24.2c-12.4,42-52.1,61.4-90.7,61.4c-17.8,0-30.5-3.7-34.2-5.3c-0.2-0.1-0.3-0.4-0.2-0.7
		c0.1-0.2,0.3-0.4,0.5-0.3c1.5,0.6,12.4,4,25.8,4c14.8,0,23.5-6,23.5-13.4c0-4.7-3.7-8.4-8.4-8.4c-9.1,0-9.7,11.4-29.2,11.4
		c-8.4,0-15.8-1.7-24.5-4.4c-41.6-12.8-61.5-52.1-61.4-91c0-19,5.3-34.1,5.4-34.2c0.1-0.1,0.3-0.2,0.6-0.1c0.3,0.1,0.4,0.4,0.4,0.4
		c-0.5,1.6-4,12.4-4,25.8c0,14.8,6,23.5,13.8,23.5c4.4,0,8.1-3.4,8.1-8c0-9.1-11.1-10.1-11.1-29.6c0-8.4,1.7-15.8,4.4-24.5
		c12.8-41.6,52.1-61.2,90.7-61.5c17.9-0.1,33.6,5.2,34.2,5.7c0.1,0.1,0.2,0.3,0.1,0.6c-0.1,0.3-0.3,0.4-0.4,0.3
		c-0.2,0-10.4-4.3-25.9-4.3c-14.4,0-23.5,6-23.5,13.8c0,4.4,3.4,8.1,8.4,8.1c9.1,0,9.7-11.1,29.2-11.1c8.4,0,15.8,1.7,24.5,4.4
		c42,12.8,61.1,52.4,61.5,90.7C250.4,341.5,244.9,356.3,244.8,356.4 M187.1,327.6c-11.4,0-20.1,8.4-20.1,18.5
		c0,8.4,5,15.1,11.8,15.1c2.4,0,4.7-1.3,4.7-4.4c0-4.4-5.8-5.4-5.3-12c0.3-4.3,4.3-7.2,8.4-7.2c8.1,0,11.8,7.8,11.8,15.9
		c-0.3,12.4-9.5,21.1-20.2,21.1c-14.1,0-23.2-13.4-23.2-27.9c0-21.5,14.1-29.9,21.5-31.9c0.1,0,19.3,3.4,18.7-5.1
		c-0.3-3.7-5.8-5.2-9.8-5.3c-4.5-0.2-8.9,1.4-8.9,1.4c-2.3-1.2-4-3.5-5-6.2c13.8-10.4,23.5-20.5,23.5-31.9c0-6-4-11.4-11.8-11.4
		c-13.8,0-24.2,17.5-24.2,33.2c0,2.7,0,5.4,0.7,7.7c-8.7,6.4-15.2,10.3-27,17.4c0-1.5,0.3-5.3,1.3-10.2c4-4.4,9.6-10.9,9.6-15.9
		c0-2.4-1.3-4.4-4-4.4c-6.7,0-11.8,10.1-13.1,17.1c-3,3.7-9.1,8.4-14.1,8.4c-4,0-5.4-3.7-5.7-5c12.8-4.4,28.6-21.8,28.6-37.6
		c0-3.4-1.3-10.7-11.4-10.7c-15.1,0-27.9,22.5-27.9,40c-5.4,0-7.4-5.7-7.4-10.1s1.7-8.7,1.7-10.1c0-1.3-0.7-3-2.7-3
		c-5,0-8.1,6.7-8.1,14.4c0.3,10.7,7.4,17.5,16.8,18.1c1.3,6.4,7.1,12.4,14.1,12.4c4.4,0,9.7-1.3,13.4-4.7c-0.3,2.4-0.7,4.4-1,6.4
		c-14.8,7.7-25.5,13.1-35.3,21.8c-7.7,7.1-12.1,16.5-12.1,23.8c0,10.1,6.4,19.5,19.5,19.5c15.5,0,27.2-12.4,32.9-29.6
		c2.7-8.1,3.8-19.8,4.4-30.5c15.5-8.7,22.8-13.8,30.8-19.5c1,1.7,2,3,3.4,4c-7,3.7-23.8,14.1-23.8,38.6c0,17.5,11.8,36.9,34.9,36.9
		c19.1,0,32.2-15.8,32.2-30.9C209.6,340.4,201.9,327.6,187.1,327.6 M94.8,374.6c-5,0.2-8.4-3-8.4-8.4c0-14.4,20-28.2,35.1-35.6
		C118.8,350.8,112,373.8,94.8,374.6 M105.8,295.4c0-11.1,10.9-32.1,17.6-29.9C131.4,268.1,116.9,289.3,105.8,295.4 M169.3,290.3
		c0-13.8,9.3-27.2,14.4-24.6C189.5,268.6,179.4,281.6,169.3,290.3"/>
	</g>
</svg>
